<svg width="16" height="18" viewBox="0 0 16 18" fill="none" xmlns="http://www.w3.org/2000/svg">
<g clip-path="url(#clip0_361_335)">
<path d="M8.86369 0.874023C11.8256 2.58206 14.8079 5.82506 14.7722 10.4387C14.7431 14.188 11.8175 17.4697 7.59082 17.437L7.56542 17.4377C6.06439 17.4943 4.5872 17.0489 3.36708 16.1728C2.14693 15.2965 1.25336 14.0388 0.827316 12.5983C0.401317 11.1578 0.467336 9.61665 1.01457 8.21774C1.41594 7.19172 2.05909 6.28482 2.88278 5.571C2.88261 5.62269 2.88215 5.6748 2.88548 5.72728C2.93132 6.44871 3.31769 7.20464 4.2832 7.7157C4.30909 7.7294 4.33626 7.7411 4.36399 7.75051C5.36248 8.08928 6.23433 7.96025 6.93372 7.45693C7.60134 6.97636 8.04634 6.20202 8.33956 5.37205C8.82785 3.9899 8.95843 2.26913 8.86369 0.874023Z" fill="white" stroke="white" stroke-width="1.1" stroke-linejoin="round"/>
</g>
<defs>
<clipPath id="clip0_361_335">
<rect width="16" height="18" fill="white"/>
</clipPath>
</defs>
</svg>
