<svg width="16" height="18" viewBox="0 0 16 18" fill="none" xmlns="http://www.w3.org/2000/svg">
<path d="M8.8641 0.873953C11.826 2.58199 14.8083 5.82499 14.7726 10.4386C14.7435 14.1879 11.8179 17.4696 7.59124 17.4369L7.56584 17.4376C6.06481 17.4942 4.58761 17.0488 3.3675 16.1727C2.14735 15.2964 1.25378 14.0387 0.827731 12.5982C0.401732 11.1577 0.467751 9.61658 1.01499 8.21767C1.41636 7.19165 2.05951 6.28475 2.8832 5.57093C2.88303 5.62262 2.88257 5.67473 2.8859 5.72721C2.93174 6.44864 3.31811 7.20457 4.28362 7.71563C4.30951 7.72933 4.33668 7.74103 4.36441 7.75044C5.3629 8.08921 6.23475 7.96018 6.93414 7.45686C7.60176 6.97629 8.04676 6.20195 8.33998 5.37198C8.82827 3.98983 8.95884 2.26906 8.8641 0.873953Z" stroke="#292D32" stroke-width="1.1" stroke-linejoin="round"/>
</svg>
