<svg width="24" height="24" viewBox="0 0 24 24" fill="none" xmlns="http://www.w3.org/2000/svg">
<path d="M9 22H15C20 22 22 20 22 15V9C22 4 20 2 15 2H9C4 2 2 4 2 9V15C2 20 4 22 9 22Z" stroke="#292D32" stroke-width="1.5" stroke-linecap="round" stroke-linejoin="round"/>
<path d="M13.7903 14.8448C13.7903 16.7994 12.204 18.3858 10.2493 18.3858C8.29464 18.3858 6.70825 16.7994 6.70825 14.8448C6.70825 12.8901 8.29464 11.3037 10.2493 11.3037" stroke="#292D32" stroke-width="1.5" stroke-linecap="round" stroke-linejoin="round"/>
<path d="M13.7803 6.04102L13.7803 15.0179" stroke="#292D32" stroke-width="1.5" stroke-linecap="round" stroke-linejoin="round"/>
<g clip-path="url(#clip0_3546_92)">
<path d="M17.1397 8.97957C14.5892 8.44373 12.954 5.93885 13.4899 3.38832C14.0257 0.837785 16.5306 -0.797329 19.0811 -0.261492C21.6317 0.274346 23.2668 2.77923 22.7309 5.32976" stroke="#292D32" stroke-width="1.5" stroke-linecap="round" stroke-linejoin="round"/>
</g>
<defs>
<clipPath id="clip0_3546_92">
<rect width="4.42105" height="5.68421" fill="white" transform="translate(13.5789 5.85986)"/>
</clipPath>
</defs>
</svg>
