<svg width="16" height="18" viewBox="0 0 16 18" fill="none" xmlns="http://www.w3.org/2000/svg">
<path d="M8.80719 0.782689C11.8056 2.48357 14.8587 5.75848 14.8224 10.4389C14.7932 14.2143 11.8466 17.5196 7.59085 17.4867L7.56838 17.4875C6.05627 17.5445 4.56803 17.096 3.33887 16.2135C2.10964 15.3307 1.20898 14.0637 0.779767 12.6125C0.35062 11.1614 0.417063 9.60894 0.96825 8.19973C1.38597 7.13193 2.06428 6.19246 2.93384 5.46292C2.92962 5.54867 2.93011 5.63633 2.93572 5.72466C2.98055 6.42846 3.35712 7.16892 4.3074 7.67187C4.33082 7.68424 4.35531 7.69517 4.3804 7.70369C5.36521 8.03778 6.21951 7.90913 6.90418 7.41659C7.56019 6.94448 8.00063 6.18047 8.29226 5.35501C8.78892 3.94908 8.9142 2.18843 8.80719 0.782689Z" stroke="#292D32" stroke-linejoin="round"/>
</svg>
