<svg width="22" height="22" viewBox="0 0 22 22" fill="none" xmlns="http://www.w3.org/2000/svg">
<path d="M10.75 0.75C16.27 0.75 20.75 5.23 20.75 10.75C20.75 16.27 16.27 20.75 10.75 20.75C8.91 20.75 7.18 20.25 5.69 19.38L0.75 20.75L2.09003 15.75C1.24003 14.28 0.75 12.57 0.75 10.75C0.75 7.05 2.76 3.82 5.75 2.09" fill="white"/>
<path d="M10.75 0.75C16.27 0.75 20.75 5.23 20.75 10.75C20.75 16.27 16.27 20.75 10.75 20.75C8.91 20.75 7.18 20.25 5.69 19.38L0.75 20.75L2.09003 15.75C1.24003 14.28 0.75 12.57 0.75 10.75C0.75 7.05 2.76 3.82 5.75 2.09" stroke="#1F9C00" stroke-width="1.5" stroke-miterlimit="10" stroke-linecap="round" stroke-linejoin="round"/>
<path d="M15.75 13.9205C15.75 14.1005 15.71 14.2905 15.62 14.4705C15.53 14.6505 15.42 14.8205 15.28 14.9805C15.03 15.2505 14.76 15.4505 14.46 15.5705C14.16 15.7005 13.83 15.7605 13.48 15.7605C12.97 15.7605 12.42 15.6405 11.85 15.3905C11.27 15.1405 10.7 14.8105 10.13 14.4005C9.55 13.9805 9.01 13.5105 8.48999 13.0005C7.96999 12.4805 7.51003 11.9304 7.09003 11.3604C6.68003 10.7904 6.34999 10.2205 6.10999 9.6505C5.86999 9.0805 5.75 8.53047 5.75 8.01047C5.75 7.67047 5.80999 7.34047 5.92999 7.04047C6.04999 6.73047 6.24001 6.45047 6.51001 6.20047C6.83001 5.88047 7.17999 5.73047 7.54999 5.73047C7.68999 5.73047 7.83002 5.76047 7.96002 5.82047C8.09002 5.88047 8.20999 5.97046 8.29999 6.10046L9.46 7.74045C9.55 7.87045 9.62 7.98045 9.66 8.09045C9.71 8.20045 9.73 8.30045 9.73 8.40045C9.73 8.52045 9.69 8.64047 9.62 8.7605C9.55 8.8805 9.46 9.0005 9.34 9.1205L8.96 9.5204C8.9 9.5804 8.88 9.6405 8.88 9.7205C8.88 9.7605 8.89 9.8005 8.9 9.8405C8.92 9.8805 8.93 9.9105 8.94 9.9405C9.03 10.1105 9.19 10.3204 9.41 10.5804C9.64 10.8404 9.88 11.1105 10.14 11.3705C10.41 11.6405 10.67 11.8804 10.94 12.1104C11.2 12.3304 11.42 12.4805 11.59 12.5705C11.62 12.5805 11.65 12.6004 11.68 12.6104C11.72 12.6304 11.76 12.6305 11.81 12.6305C11.9 12.6305 11.96 12.6005 12.02 12.5405L12.4 12.1605C12.53 12.0305 12.65 11.9405 12.76 11.8805C12.88 11.8105 12.99 11.7704 13.12 11.7704C13.22 11.7704 13.32 11.7905 13.43 11.8405C13.54 11.8905 13.66 11.9505 13.78 12.0405L15.44 13.2205C15.57 13.3105 15.66 13.4205 15.72 13.5405C15.72 13.6605 15.75 13.7805 15.75 13.9205Z" fill="white" stroke="#1F9C00" stroke-width="1.5" stroke-miterlimit="10"/>
</svg>
