<svg width="100" height="100" viewBox="0 0 100 100" fill="none" xmlns="http://www.w3.org/2000/svg">
<path d="M73.7172 46.3481C73.2865 46.1416 72.849 45.9429 72.4057 45.7527C71.6339 31.5303 63.8625 23.388 50.8135 23.3047C50.7544 23.3043 50.6956 23.3043 50.6365 23.3043C42.8315 23.3043 36.3402 26.6359 32.3448 32.6983L39.5214 37.6213C42.506 33.0929 47.1902 32.1275 50.6399 32.1275C50.6797 32.1275 50.7197 32.1275 50.7592 32.1279C55.0557 32.1553 58.2979 33.4045 60.3964 35.8406C61.9234 37.6142 62.9448 40.0651 63.4505 43.1582C59.6411 42.5108 55.5214 42.3117 51.1172 42.5642C38.7108 43.2789 30.7349 50.5145 31.2706 60.5687C31.5424 65.6687 34.0832 70.0563 38.4245 72.9224C42.095 75.3453 46.8224 76.5302 51.7356 76.262C58.224 75.9062 63.3141 73.4307 66.8651 68.9042C69.562 65.4667 71.2677 61.012 72.0208 55.399C75.113 57.2651 77.4047 59.7208 78.6703 62.6729C80.8224 67.6911 80.9479 75.9375 74.2193 82.6604C68.324 88.55 61.2375 91.0979 50.5279 91.1766C38.648 91.0885 29.6634 87.2786 23.8219 79.8526C18.3518 72.899 15.5248 62.8552 15.4194 50C15.5248 37.1447 18.3518 27.1008 23.8219 20.1472C29.6634 12.7213 38.6479 8.91146 50.5277 8.82318C62.4937 8.91214 71.6349 12.7403 77.7 20.2021C80.674 23.8612 82.9161 28.4629 84.3943 33.8283L92.8042 31.5845C91.0125 24.9803 88.1932 19.2894 84.3568 14.5698C76.5812 5.00348 65.2094 0.10164 50.557 0H50.4984C35.8758 0.101286 24.6313 5.02177 17.0772 14.6246C10.3552 23.17 6.8877 35.0603 6.77119 49.9648L6.77083 50L6.77119 50.0352C6.8877 64.9396 10.3552 76.8302 17.0772 85.3755C24.6313 94.9781 35.8758 99.899 50.4984 100H50.557C63.5573 99.9099 72.7208 96.5062 80.2698 88.9641C90.1464 79.0969 89.849 66.7286 86.5938 59.1359C84.2583 53.6911 79.8057 49.2689 73.7172 46.3481ZM51.2711 67.4516C45.8336 67.7578 40.1846 65.3172 39.906 60.0896C39.6996 56.2135 42.6645 51.8885 51.6048 51.3733C52.6286 51.3143 53.6333 51.2854 54.6203 51.2854C57.8677 51.2854 60.9057 51.6009 63.6677 52.2047C62.6375 65.0703 56.5948 67.1594 51.2711 67.4516Z" fill="black"/>
</svg>
